PathFileType	4	(X/Y/Z)	C:\Users\Basilio\Documents\Thesis Gigler\squatting_fais\c3dfiles\038\SJ_pre4\markers_experimental.trc
DataRate	CameraRate	NumFrames	NumMarkers	Units	OrigDataRate	OrigDataStartFrame	OrigNumFrames
200.000000	200.000000	4	61	mm	200.000000	1003	2007
Frame#	Time	FHD			LBHD			RBHD			C7			T10			CLAV			LSHO			LUUPA			LMUPA			LDUPA			LLEP			LMEP			LRAD			LUL			LRFIN			RSHO			RUPA1			RMUPA			RDUPA			RLEP			RMEP			RRAD			RUL			RUFIN			LASI			RASI			USACR			LSACR			RSACR			LTHI1			LTHI2			LTHI3			LTHI4			LLFC			LMFC			LTIB1			LTIB2			LTIB3			LTIB4			LLMAL			LMMAL			LHEE			LMT1			LMT2			LMT5			RTHI			RTHI2			RTHI3			RTHI4			RLFC			RMFC			RTIB1			RTIB2			RTIB3			RTIB4			RLMAL			RMMAL			RHEE			RMT1			RMT2			RMT5			
		X1	Y1	Z1	X2	Y2	Z2	X3	Y3	Z3	X4	Y4	Z4	X5	Y5	Z5	X6	Y6	Z6	X7	Y7	Z7	X8	Y8	Z8	X9	Y9	Z9	X10	Y10	Z10	X11	Y11	Z11	X12	Y12	Z12	X13	Y13	Z13	X14	Y14	Z14	X15	Y15	Z15	X16	Y16	Z16	X17	Y17	Z17	X18	Y18	Z18	X19	Y19	Z19	X20	Y20	Z20	X21	Y21	Z21	X22	Y22	Z22	X23	Y23	Z23	X24	Y24	Z24	X25	Y25	Z25	X26	Y26	Z26	X27	Y27	Z27	X28	Y28	Z28	X29	Y29	Z29	X30	Y30	Z30	X31	Y31	Z31	X32	Y32	Z32	X33	Y33	Z33	X34	Y34	Z34	X35	Y35	Z35	X36	Y36	Z36	X37	Y37	Z37	X38	Y38	Z38	X39	Y39	Z39	X40	Y40	Z40	X41	Y41	Z41	X42	Y42	Z42	X43	Y43	Z43	X44	Y44	Z44	X45	Y45	Z45	X46	Y46	Z46	X47	Y47	Z47	X48	Y48	Z48	X49	Y49	Z49	X50	Y50	Z50	X51	Y51	Z51	X52	Y52	Z52	X53	Y53	Z53	X54	Y54	Z54	X55	Y55	Z55	X56	Y56	Z56	X57	Y57	Z57	X58	Y58	Z58	X59	Y59	Z59	X60	Y60	Z60	X61	Y61	Z61	

1004	5.015	-143.7376251220703	1279.253784179688	-907.7579345703127	-286.6625366210938	1195.83056640625	-964.2266845703127	-270.8907775878907	1185.4921875	-818.7583618164065	-322.5984802246094	1089.559204101563	-888.8205566406252	-509.6241149902345	887.9187622070315	-885.3735961914065	-216.4545898437501	989.5974731445315	-904.3957519531252	-221.2440490722657	1054.75732421875	-1057.505126953125	-307.8169555664063	943.351745605469	-1249.323608398438	-299.9158325195313	894.8611450195315	-1234.09326171875	-331.0058288574219	887.7219238281252	-1283.635864257813	-359.6198730468751	834.2731933593752	-1304.288940429688	-437.2080383300782	866.521911621094	-1307.229736328125	-510.1224060058595	717.9537963867189	-1072.76171875	-468.7989807128907	665.3557739257814	-1106.010498046875	-506.3839111328126	676.1141357421876	-1004.219848632813	-194.0947265625001	1031.80712890625	-749.3665771484376	-232.1997833251954	905.4160156250002	-563.7100219726564	-246.2797088623047	860.299499511719	-572.8236083984376	-257.3378295898438	861.7747192382815	-514.1520996093751	-293.2526550292969	803.6651611328127	-480.7457580566407	-363.6405944824219	845.5219726562502	-456.4924316406251	-484.5001220703126	694.6697998046876	-656.1585693359376	-432.8553466796876	644.7301635742189	-649.3675537109376	-483.4421997070314	687.5343017578126	-731.8264770507814	nan	nan	nan	-488.184783935547	679.7489624023439	-751.3635253906251	-631.7696533203126	774.877624511719	-873.459655761719	-662.0138549804689	753.6064453125001	-897.9962158203127	-654.4218139648439	755.6020507812501	-841.3806152343752	-446.9806518554689	562.9136352539064	-1161.573974609375	-367.4841613769532	552.1027832031251	-1196.740112304688	-337.8357543945313	583.7343139648439	-1172.985107421875	-341.8656616210938	497.4193725585939	-1209.3115234375	-299.3256225585938	459.3188476562501	-1215.028198242188	-256.8758239746094	449.3638916015626	-1112.648681640625	-282.4959106445313	285.4199218750001	-1133.9052734375	-355.6906127929688	257.5902404785157	-1176.186279296875	-319.1005249023438	243.8053436279297	-1155.53271484375	-347.4415588378907	179.0570983886719	-1107.559936523438	-472.5550537109376	82.11220550537111	-1089.407958984375	-413.3270874023439	98.01596832275393	-1029.4541015625	-507.819305419922	44.63964080810548	-1021.422241210938	-307.3768615722657	46.63830566406251	-1089.136596679688	-319.5573425292969	51.26940917968751	-1138.277709960938	-372.8825683593751	31.31130027770997	-1169.614135742188	-443.849334716797	547.4868774414064	-648.1524658203126	-379.1522827148438	546.2714233398439	-630.8676757812501	-358.8059082031251	574.3912353515626	-634.0948486328126	-329.5850524902344	474.7504882812501	-631.9671020507814	-239.3755340576172	424.5149841308595	-628.5375976562501	-222.4735565185547	427.2062072753907	-740.0080566406251	-251.9396667480469	264.1499023437501	-672.0059204101564	-364.4224548339844	227.0059356689454	-658.8250732421876	-320.0176086425782	210.9179229736329	-665.7005615234376	-326.7828369140626	162.7724914550782	-698.4822998046876	-445.9127807617189	88.2411346435547	-696.1505126953126	-398.7246704101564	86.8513870239258	-768.1823730468752	-494.1957092285157	40.36282348632813	-773.5801391601565	-291.3031616210938	48.02284240722658	-691.3494873046876	-309.1473388671876	53.89366149902345	-649.3883056640626	-364.4889221191407	36.17494201660157	-619.5225219726564	
1005	5.02	-143.5066223144532	1278.998291015625	-907.788757324219	-286.4789428710938	1195.48046875	-964.2037353515627	-270.7677917480469	1185.16455078125	-818.7299804687502	-322.4635314941407	1089.257446289063	-888.879333496094	-509.3947753906251	887.631042480469	-885.3397216796877	-216.2517700195313	989.218444824219	-904.362731933594	-221.084701538086	1054.40283203125	-1057.572265625	-307.5897827148438	943.089538574219	-1249.33984375	-299.9417419433594	894.5704345703127	-1234.053100585938	-330.8759155273438	887.3668212890627	-1283.66796875	-359.5876770019532	833.9555664062502	-1304.1826171875	-436.7743530273439	865.8034667968752	-1307.358642578125	-510.0898742675782	717.6511840820314	-1072.7021484375	-468.7292785644532	665.1584472656251	-1106.11865234375	-506.3056945800782	675.9299926757814	-1004.341857910156	-193.9283905029297	1031.493408203125	-749.5001220703126	-231.942611694336	904.9038085937502	-563.8275146484376	-245.9618072509766	859.8384399414065	-572.9377441406251	-256.8586120605469	861.271179199219	-514.3259887695314	-292.8464355468751	803.2429809570315	-480.8989868164064	-363.2781372070313	844.8939208984377	-456.4574584960939	-484.4075927734376	694.3040771484376	-656.0503540039064	-432.6864624023439	644.3306274414064	-649.3986206054689	-483.626922607422	687.2734375000001	-731.6907958984376	nan	nan	nan	-488.0343017578126	679.4514160156251	-751.2324218750001	-631.6233520507814	774.4582519531252	-873.4094238281252	-661.9149780273439	753.3133544921876	-897.882263183594	-654.1109619140626	755.1607666015626	-841.3115844726565	-446.8674316406251	562.7393188476564	-1161.587646484375	-367.4527893066407	551.9660644531251	-1196.798706054688	-337.7965087890626	583.5974731445314	-1173.112426757813	-341.8128356933594	497.293914794922	-1209.38916015625	-299.2214050292969	459.2182617187501	-1215.147216796875	-256.6989135742188	449.4160461425782	-1112.653076171875	-282.4292297363282	285.3694458007813	-1134.041870117188	-355.5710144042969	257.5426635742188	-1176.33837890625	-319.0877075195313	243.8802947998047	-1155.653686523438	-347.3469848632813	179.0480346679688	-1107.625122070313	-473.0808715820314	81.88579559326173	-1089.555908203125	-413.2413940429689	97.60253906250003	-1029.470458984375	-507.7535095214845	44.64356994628907	-1021.405578613281	-307.2545166015626	46.70983123779298	-1089.07861328125	-319.5686950683594	51.28004837036134	-1138.269897460938	-372.9427185058594	31.32232093811036	-1169.625366210938	-443.4895935058595	547.2165527343751	-648.1080322265626	-378.8863830566407	546.0856323242189	-630.7411499023439	-358.5105895996094	574.0405883789064	-634.1514892578126	-329.3691711425782	474.6192016601564	-631.9326782226564	-239.0036010742188	424.2796630859376	-628.5404663085939	-222.2841339111329	427.0675659179689	-739.9876098632814	-251.6797180175782	263.9067382812501	-672.1159667968751	-364.3024291992188	227.0316162109376	-658.8339233398439	-319.8617553710938	210.7737884521485	-665.7263183593751	-326.7012939453126	162.7012481689453	-698.5062866210939	-445.8411254882814	88.18192291259767	-696.1695556640626	-398.6678161621095	86.8710403442383	-768.213073730469	-494.1769104003907	40.31875610351563	-773.5801391601565	-291.2667541503907	48.0494842529297	-691.3665161132814	-309.1216430664063	53.85692596435548	-649.3833618164064	-364.4911193847657	36.18706130981446	-619.5558471679689	
1006	5.025	-143.3724822998047	1278.754760742188	-907.8121337890627	-286.3038330078126	1195.179931640625	-964.1656494140627	-270.6325378417969	1184.894287109375	-818.7706298828127	-322.3904113769532	1088.948486328125	-888.8242797851565	-509.2714843750001	887.296081542969	-885.2976074218752	-216.0015869140626	988.7737426757815	-904.3936157226565	-220.9576263427735	1054.166015625	-1057.710571289063	-307.4141235351563	942.7634277343752	-1249.386596679688	-299.8728942871094	894.2415161132815	-1233.9990234375	-330.6788330078126	887.031921386719	-1283.680541992188	-359.5848999023438	833.6097412109377	-1304.1298828125	-436.689910888672	865.5061645507815	-1307.383422851563	-510.0638122558595	717.3992309570314	-1072.700805664063	-468.4975585937501	665.0111694335939	-1106.12890625	-506.1843261718751	675.6511230468751	-1004.275512695313	-193.7999877929688	1031.103149414063	-749.5478515625001	-231.5896148681641	904.458190917969	-563.9816894531251	-245.6917266845704	859.1909179687502	-573.0092773437501	-256.5762329101563	860.9394531250002	-514.4611206054689	-292.4478454589844	802.8352661132815	-481.031463623047	-362.9165649414063	844.3982543945315	-456.3152160644532	-484.2346496582032	694.0236816406251	-656.0034790039064	-432.5387573242189	643.9336547851564	-649.2833862304689	-482.9839172363282	686.8814697265626	-731.7253417968751	nan	nan	nan	-487.7276916503907	679.1900024414064	-751.2468872070314	-631.4531250000001	774.2000122070315	-873.3367919921877	-661.7412719726564	753.0104980468751	-897.7866210937502	-654.9772949218751	754.9539794921876	-841.277770996094	-446.7871704101564	562.5571899414064	-1161.647827148438	-367.4114990234376	551.8453369140626	-1196.851684570313	-337.7088928222657	583.4634399414064	-1173.187133789063	-341.6531372070313	497.1211853027345	-1209.467041015625	-299.0733032226563	459.1105041503907	-1215.24267578125	-256.5501403808594	449.3073120117189	-1112.663696289063	-282.3525390625001	285.2756042480469	-1134.133056640625	-355.5172729492188	257.4912414550782	-1176.384033203125	-319.1095886230469	243.8277130126954	-1155.63818359375	-347.2408447265626	178.9645538330078	-1107.682861328125	-472.5488281250001	82.09738922119142	-1089.399658203125	-413.2533264160157	98.01186370849612	-1029.463134765625	-507.718231201172	44.64807891845704	-1021.448974609375	-307.3767395019532	46.5536117553711	-1089.076171875	-319.5296020507813	51.24822998046876	-1138.278076171875	-372.9149169921876	31.30749320983887	-1169.64111328125	-443.227996826172	546.8671264648439	-648.1356811523439	-378.6203308105469	545.8581542968751	-630.7760009765626	-358.2913818359376	573.7203979492189	-634.1740722656251	-329.0921325683594	474.4328002929689	-631.9532470703126	-238.8514709472657	424.1903686523439	-628.4774780273439	-222.0827789306641	426.8628845214845	-739.9540405273439	-251.4983062744141	263.7420043945313	-672.1676025390626	-364.1021423339844	226.965560913086	-658.8688354492189	-319.6490173339844	210.7832031250001	-665.6134643554689	-326.6073303222657	162.6549377441407	-698.5590209960939	-445.7985229492189	88.16831207275392	-696.2175292968751	-398.639617919922	86.80794525146486	-768.2010498046877	-494.3162536621095	40.25342178344727	-773.6317138671877	-291.2448730468751	48.05209350585939	-691.3595581054689	-309.0821533203126	53.89076614379884	-649.4304199218751	-364.4868164062501	36.22577285766602	-619.5789184570314	
1007	5.03	-143.2857055664063	1278.37841796875	-907.7084960937502	-286.2212829589844	1194.88916015625	-964.0952148437502	-270.4874572753907	1184.466186523438	-818.7653808593752	-322.2074279785157	1088.62451171875	-888.9323730468752	-509.5003356933595	886.4995117187502	-885.3969726562502	-215.821273803711	988.4702148437502	-904.3386840820315	-220.8265228271485	1053.921630859375	-1057.814453125	-307.4312133789063	942.4089965820315	-1249.343139648438	-299.6619262695313	893.8801269531252	-1233.999389648438	-330.6071472167969	886.684753417969	-1283.706420898438	-359.5220642089844	833.3184204101565	-1304.07666015625	-436.618865966797	865.2163085937502	-1307.34033203125	-510.0065002441407	717.0689697265626	-1072.690673828125	-468.4235839843751	664.7528686523439	-1106.103759765625	-506.0686950683595	675.3649291992189	-1004.325012207031	-193.6132507324219	1030.86376953125	-749.5596313476564	-231.3717651367188	904.1392211914065	-564.1444091796876	-245.2946929931641	858.7661743164065	-573.0604248046876	-256.1488037109376	860.5416259765627	-514.4943847656251	-291.9878234863282	802.3548583984377	-481.1942443847657	-362.4740295410157	843.767028808594	-456.3511352539064	-483.9807434082032	693.6979370117189	-655.8731689453126	-432.5021972656251	643.5596923828126	-649.1366577148439	-482.4646606445314	686.5482788085939	-731.7379150390626	nan	nan	nan	-487.4477844238282	678.8510131835939	-751.3382568359376	-631.3173217773439	773.8572998046877	-873.223571777344	-661.5740356445314	752.6278076171876	-897.7305908203127	-654.6646118164064	754.5444335937501	-841.2315063476565	-446.7720031738282	562.3485107421876	-1161.65869140625	-367.3808288574219	551.7521362304689	-1196.860961914063	-337.6531982421876	583.3417358398439	-1173.287475585938	-341.6064147949219	496.9846191406251	-1209.563598632813	-298.9638366699219	459.0338745117189	-1215.379638671875	-256.4123535156251	449.2000427246095	-1112.699340820313	-282.3044433593751	285.1275939941407	-1134.218505859375	-355.4878540039063	257.4305419921876	-1176.515991210938	-318.9858398437501	243.7650604248047	-1155.657958984375	-347.2489013671876	178.9175872802735	-1107.728881835938	-473.0554199218751	81.85648345947267	-1089.566650390625	-413.1173095703126	97.69405364990237	-1029.393798828125	-507.7369384765626	44.67070770263673	-1021.403503417969	-307.3496093750001	46.66442108154298	-1089.125610351563	-319.5426330566407	51.21297836303712	-1138.24169921875	-372.9315185546876	31.29579544067384	-1169.646606445313	-442.970184326172	546.6091918945314	-648.1272583007814	-378.4732971191407	545.6202392578126	-630.7885131835939	-358.0130310058594	573.4418334960939	-634.1651611328126	-328.6150817871094	474.5799865722657	-631.6436767578126	-238.8497467041016	423.7579345703126	-628.6680297851564	-221.8726348876954	426.575164794922	-739.9804077148439	-251.3236541748047	263.6659851074219	-672.3318481445314	-363.9090881347657	226.8894653320313	-658.8385009765626	-319.5194091796876	210.6506652832032	-665.6924438476564	-326.4936523437501	162.5160064697266	-698.6177978515626	-445.747772216797	88.22048950195314	-696.1972045898439	-397.9514770507814	86.4564895629883	-767.9854736328126	-494.2699584960939	40.26976013183594	-773.7026367187502	-291.1890563964844	48.00996780395509	-691.3609008789064	-309.1109313964844	53.81564331054689	-649.4004516601564	-364.4623718261719	36.25658416748048	-619.5968627929689	
